<?xml version="1.0" encoding="utf-8"?>
<!-- Generator: Adobe Illustrator 24.3.0, SVG Export Plug-In . SVG Version: 6.00 Build 0)  -->
<svg version="1.1" id="facebook" xmlns="http://www.w3.org/2000/svg" xmlns:xlink="http://www.w3.org/1999/xlink" x="0px" y="0px"
	 viewBox="0 0 16 16" style="enable-background:new 0 0 16 16;" xml:space="preserve">
<style type="text/css">
	.st0{fill:#F2F2F2;}
</style>
<path class="st0" d="M15.1,0H0.9C0.4,0,0,0.4,0,0.9v14.2C0,15.6,0.4,16,0.9,16h14.2c0.5,0,0.9-0.4,0.9-0.9V0.9C16,0.4,15.6,0,15.1,0
	z M13.5,4.7h-1.3c-1,0-1.2,0.5-1.2,1.2v1.5h2.4l-0.3,2.4H11V16H8.5V9.8H6.5V7.4h2.1V5.6c0-2.1,1.3-3.2,3.1-3.2c0.6,0,1.2,0,1.9,0.1
	V4.7z"/>
</svg>
