<svg xmlns="http://www.w3.org/2000/svg" xmlns:xlink="http://www.w3.org/1999/xlink" width="1024" height="561" viewBox="0 0 1024 561">
  <defs>
    <linearGradient id="linear-gradient" x1="0.033" y1="0.032" x2="1.027" y2="1" gradientUnits="objectBoundingBox">
      <stop offset="0" stop-color="#1e8fbb"/>
      <stop offset="1" stop-color="#a7ebf2"/>
    </linearGradient>
    <clipPath id="clip-Personalizado_1">
      <rect width="1024" height="561"/>
    </clipPath>
  </defs>
  <g id="Personalizado_1" data-name="Personalizado – 1" clip-path="url(#clip-Personalizado_1)">
    <rect width="1024" height="561" fill="#fff"/>
    <path id="Sustracción_2" data-name="Sustracción 2" d="M307.667,560.272h-.018c-45.548,0-98.355-1.178-156.952-3.5-49.226-1.951-92.262-4.307-119.7-5.94V13.107l.062-.005c4.421-.345,44.8-3.457,100.674-6.548,34.36-1.9,67.708-3.417,99.119-4.505C270.1.689,306.367,0,338.653,0c13.615,0,26.741.123,39.014.367,77.828,1.547,158.233,5.8,235.992,9.918h.019c70.977,3.758,138.017,7.306,199.989,8.7,8.078.182,16.722.275,25.693.276h.02c72.44,0,157.239-6.036,215.621-11.1V555.621c-26.879-2.209-68.4-5.369-113.547-7.868-50.584-2.8-95.365-4.219-133.1-4.219-8.923,0-17.565.081-25.687.239-61.942,1.211-128.987,4.295-199.969,7.56h-.011c-77.767,3.577-158.181,7.276-236.021,8.619C334.406,560.165,321.285,560.272,307.667,560.272Z" transform="translate(-31 0.834)" fill="url(#linear-gradient)"/>
  </g>
</svg>
