<svg xmlns="http://www.w3.org/2000/svg" xmlns:xlink="http://www.w3.org/1999/xlink" width="1024" height="768" viewBox="0 0 1024 768">
  <defs>
    <linearGradient id="linear-gradient" x1="0.033" y1="0.032" x2="1.027" y2="1" gradientUnits="objectBoundingBox">
      <stop offset="0" stop-color="#1e8fbb"/>
      <stop offset="1" stop-color="#a7ebf2"/>
    </linearGradient>
    <clipPath id="clip-Personalizado_1">
      <rect width="1024" height="768"/>
    </clipPath>
  </defs>
  <g id="Personalizado_1" data-name="Personalizado – 1" clip-path="url(#clip-Personalizado_1)">
    <rect width="1024" height="768" fill="#fff"/>
    <path id="Sustracción_2" data-name="Sustracción 2" d="M307.667,762.272h-.018c-45.548,0-98.355-1.6-156.952-4.762-49.226-2.654-92.262-5.86-119.7-8.082V17.833l.062-.007c4.421-.469,44.8-4.7,100.674-8.909,34.36-2.587,67.708-4.649,99.119-6.13C270.1.938,306.367,0,338.653,0c13.615,0,26.741.168,39.014.5C455.495,2.6,535.9,8.394,613.659,13.994h.019c70.977,5.112,138.017,9.941,199.989,11.838,8.078.248,16.722.374,25.693.375h.02c72.44,0,157.239-8.212,215.621-15.1V755.944c-26.879-3.006-68.4-7.3-113.547-10.7-50.584-3.809-95.365-5.74-133.1-5.74-8.923,0-17.565.109-25.687.326-61.942,1.648-128.987,5.843-199.969,10.285h-.011c-77.767,4.867-158.181,9.9-236.021,11.727C334.406,762.126,321.285,762.272,307.667,762.272Z" transform="translate(-31 0.834)" fill="url(#linear-gradient)"/>
  </g>
</svg>
