<svg id="Capa_1" data-name="Capa 1" xmlns="http://www.w3.org/2000/svg" viewBox="0 0 413.29 96.28"><defs><style>.cls-1{font-size:42px;font-family:ArialRoundedMTBold, Arial Rounded MT Bold;}.cls-1,.cls-2{fill:#fff;}</style></defs><title>LogoSmall</title><text class="cls-1" transform="translate(138.92 61.86)">VETS &amp; PETS</text><path class="cls-2" d="M23.26,52.16C24.45,55.72,29.87,60,29,60.67s-7.75-2.4-11.27-8.51-3.53-13.64-.4-14.23C23.66,36.74,21.14,45.79,23.26,52.16Z" transform="translate(-2 -1.32)"/><path class="cls-2" d="M59.76,71.5c-10.11-.61-21.42-2.66-21.27,8.25.14,8.77,9.59,10.89,21.12,6.92a42.27,42.27,0,0,0,13.47-7.82,60.34,60.34,0,0,0-1-9.57A24,24,0,0,1,59.76,71.5Z" transform="translate(-2 -1.32)"/><path class="cls-2" d="M60.3,88.49c-13.73,4.21-24.72,2.15-24.92-8.41-.21-13.12,13.16-11,25-9.86A18.14,18.14,0,0,0,71.88,68,56.58,56.58,0,0,0,62.8,46.65c-4.23-6-8.83-6.15-12.25-17.4C45,11.06,39.24-.23,25.64,14.23,19.31,21,19.31,27.67,25.24,38c2.75,4.76,3.16,5.93,5.93,9.49,5.35,6.87,11.07,12.65,3.56,17-3.56,2.06-13,2.77-18.58-7.51A42.86,42.86,0,0,1,11.8,45.07c-1.34-6.08-2-13-3.17-17.79v-.07A1.57,1.57,0,0,0,6,26.6a10.39,10.39,0,0,0-2.9,5C.33,42.3,2,64.1,17.73,79.86c18.58,18.59,46.09,19.26,51.4,16.61,1.83-.92,3.84-7.12,4-15.63A34.35,34.35,0,0,1,60.3,88.49Zm-.86-35.91A6.44,6.44,0,0,0,58.91,50a.82.82,0,0,1,0-.65h0a.8.8,0,0,1,1.46,0,8.11,8.11,0,0,1-4.81,10.85.79.79,0,0,1-1-1.07.86.86,0,0,1,.48-.44A6.51,6.51,0,0,0,59.44,52.58Zm-8.39-1.23c2.07-.9,4.13-.72,4.62.4s-.8,2.75-2.86,3.65-4.14.71-4.62-.41S49,52.24,51.05,51.35ZM36.31,15.81c-3.74-.56-7-1.54-6.72-3.16s3.82-4,7.51-3.17,6.72,4,6.72,5.54S40.05,16.37,36.31,15.81Z" transform="translate(-2 -1.32)"/><path class="cls-2" d="M133.18,39.93A30.81,30.81,0,0,0,119,14h0c-1.6-6.4-7.19-11.24-8.77-12.5a.83.83,0,0,0-1-.05c-2.57,1.61-6.19,7.64-6.19,7.64l.07,0-.86,0a30.26,30.26,0,0,0-25.44,14h0s-10.35-.74-14.5.65c-2.36.78,3.67,17.35,8.59,20.49a28.62,28.62,0,0,0,2.07,9.89C79.86,73.39,77.27,87.64,75.8,93a1.67,1.67,0,0,0,1.79,2.1C97,93,113.69,78.77,117.66,75.16a1.67,1.67,0,0,0,.39-1.93l-2.49-5.44A30.82,30.82,0,0,0,133.18,39.93ZM74.51,27.66l-3.66,9.15a.3.3,0,0,1-.46.12c-2.49-2-4.45-9.25-3.24-9.65,1.84-.62,5.82-.21,7.1-.06A.32.32,0,0,1,74.51,27.66Zm32-18.33c.44-.71,2.65-4.08,3.71-4.73a.38.38,0,0,1,.45,0,19.59,19.59,0,0,1,4.21,6.93.22.22,0,0,1-.27.29l-8-2.22A.2.2,0,0,1,106.52,9.33Zm-2.15,9.36a8.1,8.1,0,0,1,11.26-3.76.79.79,0,1,1-.78,1.37,6.51,6.51,0,0,0-9,3,.81.81,0,0,1-.47.44h0A.8.8,0,0,1,104.37,18.69Zm10.77,5.48c-1.08.63-2.78-.28-3.79-2s-.95-3.68.13-4.3,2.78.29,3.79,2S116.22,23.55,115.14,24.17ZM81.49,30.84a6.34,6.34,0,0,0-.63,2.53.83.83,0,0,1-.28.59h0a.79.79,0,0,1-1.3-.65,8.1,8.1,0,0,1,9-7.68.79.79,0,0,1,.4,1.39.85.85,0,0,1-.62.18A6.51,6.51,0,0,0,81.49,30.84Zm8.15,7.37c-1.08.62-2.78-.29-3.79-2s-.95-3.67.13-4.29,2.78.28,3.79,2S90.72,37.58,89.64,38.21ZM118.54,41a7.81,7.81,0,0,1-8.17,1.65,7.32,7.32,0,0,1-12.73,5.73,7.79,7.79,0,0,1-1.1-1.63,1,1,0,0,1,.29-1.25,1,1,0,0,1,1.48.35,5.56,5.56,0,0,0,.52.87,5.34,5.34,0,0,0,8.82-6c-.11-.13-.22-.26-.32-.4s-.19-.27-.28-.41-.24-.25-.36-.36a.89.89,0,0,1-.22-.3c-1.4.28-4.62-.83-5.49-1.33a1.24,1.24,0,0,1-.49-.5,2.71,2.71,0,0,1,.71-3.49l4-2.92a2.72,2.72,0,0,1,3.55.4,1.32,1.32,0,0,1,.32.62c.23,1.1.6,5-.41,5.75l-.35.26a1,1,0,0,1,.17.23,4.91,4.91,0,0,0,.71,1.08,5.55,5.55,0,0,0,7.34.72A5.49,5.49,0,0,0,118,32.33a5,5,0,0,0-.69-.75,1,1,0,0,1,.12-1.54,1,1,0,0,1,1.32,0A7.17,7.17,0,0,1,120,31.59,7.51,7.51,0,0,1,118.54,41Z" transform="translate(-2 -1.32)"/></svg>