<svg id="Capa_1" data-name="Capa 1" xmlns="http://www.w3.org/2000/svg" viewBox="0 0 411.41 96.28"><defs><style>.cls-1{fill:#fff;}</style></defs><path class="cls-1" d="M148.65,36.6l6.81,20.16,6.83-20.3c.35-1.07.62-1.81.8-2.23a3,3,0,0,1,.88-1.12,2.55,2.55,0,0,1,1.68-.51,2.84,2.84,0,0,1,1.45.39,2.88,2.88,0,0,1,1,1,2.47,2.47,0,0,1,.38,1.3,4.28,4.28,0,0,1-.12,1,7.2,7.2,0,0,1-.31,1l-.37,1L160.44,58c-.26.75-.52,1.47-.78,2.15a9.25,9.25,0,0,1-.9,1.78,4.12,4.12,0,0,1-1.36,1.26,4.08,4.08,0,0,1-2.08.49,4.22,4.22,0,0,1-2.09-.48,4,4,0,0,1-1.37-1.27,9.47,9.47,0,0,1-.91-1.8q-.39-1-.78-2.13L143,38.53c-.12-.36-.25-.7-.38-1.05a8.35,8.35,0,0,1-.33-1.1,4.65,4.65,0,0,1-.13-1,2.69,2.69,0,0,1,.84-1.91,2.85,2.85,0,0,1,2.11-.86,2.47,2.47,0,0,1,2.21,1A12.6,12.6,0,0,1,148.65,36.6Z" transform="translate(-2 -1.32)"/><path class="cls-1" d="M192.91,37.81H179.19v7.38h12.63a3,3,0,0,1,2.08.63,2.13,2.13,0,0,1,.69,1.65,2.22,2.22,0,0,1-.68,1.67,2.94,2.94,0,0,1-2.09.65H179.19v8.55h14.19a3.06,3.06,0,0,1,2.16.67,2.26,2.26,0,0,1,.73,1.77,2.22,2.22,0,0,1-.73,1.73,3.06,3.06,0,0,1-2.16.67H176.83A3.89,3.89,0,0,1,174,62.3a4,4,0,0,1-.87-2.85V36.85a5,5,0,0,1,.39-2.14,2.36,2.36,0,0,1,1.22-1.21,5,5,0,0,1,2.12-.38h16.08a3.12,3.12,0,0,1,2.16.64,2.2,2.2,0,0,1,.71,1.69,2.23,2.23,0,0,1-.71,1.72A3.12,3.12,0,0,1,192.91,37.81Z" transform="translate(-2 -1.32)"/><path class="cls-1" d="M220.63,38.14H214V60a4,4,0,0,1-.84,2.8,2.82,2.82,0,0,1-2.18.91,2.87,2.87,0,0,1-2.2-.92,4,4,0,0,1-.85-2.79V38.14h-6.65a3.34,3.34,0,0,1-2.31-.69,2.55,2.55,0,0,1,0-3.66,3.41,3.41,0,0,1,2.28-.67h19.36a3.42,3.42,0,0,1,2.35.69,2.34,2.34,0,0,1,.77,1.83,2.28,2.28,0,0,1-.78,1.81A3.44,3.44,0,0,1,220.63,38.14Z" transform="translate(-2 -1.32)"/><path class="cls-1" d="M250.21,54.16a8.83,8.83,0,0,1-1.41,4.9,9.36,9.36,0,0,1-4.11,3.4,15.42,15.42,0,0,1-6.42,1.23A14.44,14.44,0,0,1,230.93,62a9.71,9.71,0,0,1-3.33-3.23,7.32,7.32,0,0,1-1.29-3.93A2.66,2.66,0,0,1,229,52.17a2.31,2.31,0,0,1,1.63.61,4.71,4.71,0,0,1,1.14,1.83,12.72,12.72,0,0,0,1.24,2.4,5.11,5.11,0,0,0,1.88,1.59,7,7,0,0,0,3.18.62A7.14,7.14,0,0,0,242.5,58a3.8,3.8,0,0,0,1.7-3.15,3.32,3.32,0,0,0-.92-2.43A5.86,5.86,0,0,0,240.93,51q-1.45-.49-3.87-1.05a28.25,28.25,0,0,1-5.42-1.77,8.74,8.74,0,0,1-3.47-2.77A7.22,7.22,0,0,1,226.89,41a7.52,7.52,0,0,1,1.35-4.41,8.55,8.55,0,0,1,3.92-3,16.06,16.06,0,0,1,6-1,14.9,14.9,0,0,1,4.79.69,10.21,10.21,0,0,1,3.35,1.83,7.53,7.53,0,0,1,1.95,2.38,5.53,5.53,0,0,1,.61,2.44,2.84,2.84,0,0,1-.77,2,2.44,2.44,0,0,1-1.91.87,2.19,2.19,0,0,1-1.59-.52,6.8,6.8,0,0,1-1.18-1.71,7.76,7.76,0,0,0-2-2.66,5.81,5.81,0,0,0-3.69-1A6.43,6.43,0,0,0,234,38a3,3,0,0,0-1.44,2.49A2.52,2.52,0,0,0,233,42a4.21,4.21,0,0,0,1.35,1.12,9.08,9.08,0,0,0,1.75.74q.88.27,2.91.78c1.69.4,3.23.84,4.6,1.31a13.69,13.69,0,0,1,3.51,1.75,7.22,7.22,0,0,1,2.26,2.59A8.33,8.33,0,0,1,250.21,54.16Z" transform="translate(-2 -1.32)"/><path class="cls-1" d="M269.09,39.49a6.28,6.28,0,0,1,1-3.47A6.79,6.79,0,0,1,273,33.53a10.35,10.35,0,0,1,4.53-.93,9.57,9.57,0,0,1,4.47,1,6.7,6.7,0,0,1,2.82,2.52,6.16,6.16,0,0,1,.94,3.24,5.84,5.84,0,0,1-1.52,4,19.06,19.06,0,0,1-4.47,3.46l1.91,2.28c.58.71,1.15,1.37,1.7,2s1,1.14,1.49,1.58c.21-.38.53-1.1,1-2.15a9.17,9.17,0,0,1,1.21-2.28,1.9,1.9,0,0,1,1.59-.7,2.41,2.41,0,0,1,1.7.69,2.2,2.2,0,0,1,.74,1.67,7.64,7.64,0,0,1-.64,2.55,24.06,24.06,0,0,1-1.84,3.66c.5.44,1.31,1.1,2.41,2a16.81,16.81,0,0,1,2,1.82,2,2,0,0,1,.38,1.28,2.37,2.37,0,0,1-.77,1.79,2.45,2.45,0,0,1-1.72.73,3.25,3.25,0,0,1-1.86-.61q-.9-.61-3.84-3a14.12,14.12,0,0,1-2.75,2,11.72,11.72,0,0,1-3.06,1.19,15.69,15.69,0,0,1-3.64.39,13.35,13.35,0,0,1-4.61-.75,9.62,9.62,0,0,1-3.39-2,8.23,8.23,0,0,1-2-2.82,7.92,7.92,0,0,1-.65-3.14,7.73,7.73,0,0,1,.49-2.82A7.88,7.88,0,0,1,267,49.82a12.54,12.54,0,0,1,2.2-2,22.51,22.51,0,0,1,3-1.81,23,23,0,0,1-2.33-3.44A6.68,6.68,0,0,1,269.09,39.49Zm5.81,9.83a11.75,11.75,0,0,0-3.13,2.42,4.26,4.26,0,0,0-1,2.87,4.44,4.44,0,0,0,.38,1.8,5.49,5.49,0,0,0,1.11,1.6,5.07,5.07,0,0,0,1.69,1.13,5.39,5.39,0,0,0,2,.39,6.3,6.3,0,0,0,2-.33,7.59,7.59,0,0,0,1.87-.93,14.55,14.55,0,0,0,1.83-1.51,44.59,44.59,0,0,1-3.29-3.33Q276.93,51.78,274.9,49.32ZM277,43.7a19.63,19.63,0,0,0,3-2.25,2.94,2.94,0,0,0,.94-2.2,2.79,2.79,0,0,0-.94-2.14,3.61,3.61,0,0,0-4.71,0,2.7,2.7,0,0,0-1,2.07,2.92,2.92,0,0,0,.36,1.32,9.36,9.36,0,0,0,.89,1.4C276,42.4,276.42,43,277,43.7Z" transform="translate(-2 -1.32)"/><path class="cls-1" d="M320,51.47h-5.57V60a4,4,0,0,1-.87,2.77,2.8,2.8,0,0,1-2.17.94,2.86,2.86,0,0,1-2.22-.93,4,4,0,0,1-.84-2.74V36.85a3.76,3.76,0,0,1,.93-2.87,4.16,4.16,0,0,1,2.93-.86H320a20.4,20.4,0,0,1,5.34.53,7.88,7.88,0,0,1,3.18,1.7,7.53,7.53,0,0,1,2,2.91,10.16,10.16,0,0,1,.7,3.88q0,4.59-2.83,7T320,51.47Zm-1.47-13.78h-4.1v9.19h4.1a12.34,12.34,0,0,0,3.6-.45,4.29,4.29,0,0,0,2.2-1.48,4.38,4.38,0,0,0,.76-2.69A4.57,4.57,0,0,0,323.87,39Q322.57,37.69,318.48,37.69Z" transform="translate(-2 -1.32)"/><path class="cls-1" d="M356.11,37.81H342.39v7.38H355a3,3,0,0,1,2.08.63,2.13,2.13,0,0,1,.69,1.65,2.22,2.22,0,0,1-.68,1.67,2.94,2.94,0,0,1-2.09.65H342.39v8.55h14.19a3.06,3.06,0,0,1,2.16.67,2.26,2.26,0,0,1,.73,1.77,2.22,2.22,0,0,1-.73,1.73,3.06,3.06,0,0,1-2.16.67H340a3.89,3.89,0,0,1-2.86-.88,4,4,0,0,1-.87-2.85V36.85a5,5,0,0,1,.39-2.14,2.36,2.36,0,0,1,1.22-1.21,5,5,0,0,1,2.12-.38h16.08a3.12,3.12,0,0,1,2.16.64,2.2,2.2,0,0,1,.71,1.69,2.23,2.23,0,0,1-.71,1.72A3.12,3.12,0,0,1,356.11,37.81Z" transform="translate(-2 -1.32)"/><path class="cls-1" d="M383.83,38.14h-6.64V60a4,4,0,0,1-.84,2.8,2.82,2.82,0,0,1-2.17.91,2.88,2.88,0,0,1-2.21-.92,4,4,0,0,1-.85-2.79V38.14h-6.64a3.35,3.35,0,0,1-2.32-.69,2.55,2.55,0,0,1,0-3.66,3.42,3.42,0,0,1,2.29-.67h19.35a3.42,3.42,0,0,1,2.35.69,2.34,2.34,0,0,1,.77,1.83,2.28,2.28,0,0,1-.78,1.81A3.44,3.44,0,0,1,383.83,38.14Z" transform="translate(-2 -1.32)"/><path class="cls-1" d="M413.41,54.16a8.83,8.83,0,0,1-1.41,4.9,9.25,9.25,0,0,1-4.11,3.4,15.38,15.38,0,0,1-6.42,1.23A14.44,14.44,0,0,1,394.13,62a9.71,9.71,0,0,1-3.33-3.23,7.3,7.3,0,0,1-1.28-3.93,2.65,2.65,0,0,1,2.72-2.68,2.29,2.29,0,0,1,1.63.61A4.71,4.71,0,0,1,395,54.61a12.72,12.72,0,0,0,1.24,2.4,5.11,5.11,0,0,0,1.88,1.59,7.06,7.06,0,0,0,3.18.62,7.19,7.19,0,0,0,4.4-1.26,3.81,3.81,0,0,0,1.69-3.15,3.35,3.35,0,0,0-.91-2.43A6,6,0,0,0,404.13,51c-1-.33-2.25-.68-3.87-1.05a28.25,28.25,0,0,1-5.42-1.77,8.81,8.81,0,0,1-3.47-2.77A7.22,7.22,0,0,1,390.09,41a7.52,7.52,0,0,1,1.35-4.41,8.6,8.6,0,0,1,3.92-3,16.06,16.06,0,0,1,6-1,14.86,14.86,0,0,1,4.79.69,10.21,10.21,0,0,1,3.35,1.83,7.53,7.53,0,0,1,2,2.38,5.53,5.53,0,0,1,.61,2.44,2.88,2.88,0,0,1-.76,2,2.48,2.48,0,0,1-1.92.87,2.19,2.19,0,0,1-1.59-.52,7.07,7.07,0,0,1-1.18-1.71,7.76,7.76,0,0,0-2-2.66,5.79,5.79,0,0,0-3.69-1,6.43,6.43,0,0,0-3.81,1,3,3,0,0,0-1.44,2.49,2.52,2.52,0,0,0,.49,1.56,4.15,4.15,0,0,0,1.36,1.12,8.74,8.74,0,0,0,1.74.74q.89.27,2.91.78c1.7.4,3.23.84,4.6,1.31a13.69,13.69,0,0,1,3.51,1.75,7.13,7.13,0,0,1,2.26,2.59A8.33,8.33,0,0,1,413.41,54.16Z" transform="translate(-2 -1.32)"/><path class="cls-1" d="M23.26,52.16C24.45,55.72,29.87,60,29,60.67s-7.75-2.4-11.27-8.51-3.53-13.64-.4-14.23C23.66,36.74,21.14,45.79,23.26,52.16Z" transform="translate(-2 -1.32)"/><path class="cls-1" d="M59.76,71.5c-10.11-.61-21.42-2.66-21.27,8.25.14,8.77,9.59,10.89,21.12,6.92a42.27,42.27,0,0,0,13.47-7.82,60.34,60.34,0,0,0-1-9.57A24,24,0,0,1,59.76,71.5Z" transform="translate(-2 -1.32)"/><path class="cls-1" d="M60.3,88.49c-13.73,4.21-24.72,2.15-24.92-8.41-.21-13.12,13.16-11,25-9.86A18.14,18.14,0,0,0,71.88,68,56.58,56.58,0,0,0,62.8,46.65c-4.23-6-8.83-6.15-12.25-17.4C45,11.06,39.24-.23,25.64,14.23,19.31,21,19.31,27.67,25.24,38c2.75,4.76,3.16,5.93,5.93,9.49,5.35,6.87,11.07,12.65,3.56,17-3.56,2.06-13,2.77-18.58-7.51A42.86,42.86,0,0,1,11.8,45.07c-1.34-6.08-2-13-3.17-17.79v-.07A1.57,1.57,0,0,0,6,26.6a10.39,10.39,0,0,0-2.9,5C.33,42.3,2,64.1,17.73,79.86c18.58,18.59,46.09,19.26,51.4,16.61,1.83-.92,3.84-7.12,4-15.63A34.35,34.35,0,0,1,60.3,88.49Zm-.86-35.91A6.44,6.44,0,0,0,58.91,50a.82.82,0,0,1,0-.65h0a.8.8,0,0,1,1.46,0,8.11,8.11,0,0,1-4.81,10.85.79.79,0,0,1-1-1.07.86.86,0,0,1,.48-.44A6.51,6.51,0,0,0,59.44,52.58Zm-8.39-1.23c2.07-.9,4.13-.72,4.62.4s-.8,2.75-2.86,3.65-4.14.71-4.62-.41S49,52.24,51.05,51.35ZM36.31,15.81c-3.74-.56-7-1.54-6.72-3.16s3.82-4,7.51-3.17,6.72,4,6.72,5.54S40.05,16.37,36.31,15.81Z" transform="translate(-2 -1.32)"/><path class="cls-1" d="M133.18,39.93A30.81,30.81,0,0,0,119,14h0c-1.6-6.4-7.19-11.24-8.77-12.5a.83.83,0,0,0-1-.05c-2.57,1.61-6.19,7.64-6.19,7.64l.07,0-.86,0a30.26,30.26,0,0,0-25.44,14h0s-10.35-.74-14.5.65c-2.36.78,3.67,17.35,8.59,20.49a28.62,28.62,0,0,0,2.07,9.89C79.86,73.39,77.27,87.64,75.8,93a1.67,1.67,0,0,0,1.79,2.1C97,93,113.69,78.77,117.66,75.16a1.67,1.67,0,0,0,.39-1.93l-2.49-5.44A30.82,30.82,0,0,0,133.18,39.93ZM74.51,27.66l-3.66,9.15a.3.3,0,0,1-.46.12c-2.49-2-4.45-9.25-3.24-9.65,1.84-.62,5.82-.21,7.1-.06A.32.32,0,0,1,74.51,27.66Zm32-18.33c.44-.71,2.65-4.08,3.71-4.73a.38.38,0,0,1,.45,0,19.59,19.59,0,0,1,4.21,6.93.22.22,0,0,1-.27.29l-8-2.22A.2.2,0,0,1,106.52,9.33Zm-2.15,9.36a8.1,8.1,0,0,1,11.26-3.76.79.79,0,1,1-.78,1.37,6.51,6.51,0,0,0-9,3,.81.81,0,0,1-.47.44h0A.8.8,0,0,1,104.37,18.69Zm10.77,5.48c-1.08.63-2.78-.28-3.79-2s-.95-3.68.13-4.3,2.78.29,3.79,2S116.22,23.55,115.14,24.17ZM81.49,30.84a6.34,6.34,0,0,0-.63,2.53.83.83,0,0,1-.28.59h0a.79.79,0,0,1-1.3-.65,8.1,8.1,0,0,1,9-7.68.79.79,0,0,1,.4,1.39.85.85,0,0,1-.62.18A6.51,6.51,0,0,0,81.49,30.84Zm8.15,7.37c-1.08.62-2.78-.29-3.79-2s-.95-3.67.13-4.29,2.78.28,3.79,2S90.72,37.58,89.64,38.21ZM118.54,41a7.81,7.81,0,0,1-8.17,1.65,7.32,7.32,0,0,1-12.73,5.73,7.79,7.79,0,0,1-1.1-1.63,1,1,0,0,1,.29-1.25,1,1,0,0,1,1.48.35,5.56,5.56,0,0,0,.52.87,5.34,5.34,0,0,0,8.82-6c-.11-.13-.22-.26-.32-.4s-.19-.27-.28-.41-.24-.25-.36-.36a.89.89,0,0,1-.22-.3c-1.4.28-4.62-.83-5.49-1.33a1.24,1.24,0,0,1-.49-.5,2.71,2.71,0,0,1,.71-3.49l4-2.92a2.72,2.72,0,0,1,3.55.4,1.32,1.32,0,0,1,.32.62c.23,1.1.6,5-.41,5.75l-.35.26a1,1,0,0,1,.17.23,4.91,4.91,0,0,0,.71,1.08,5.55,5.55,0,0,0,7.34.72A5.49,5.49,0,0,0,118,32.33a5,5,0,0,0-.69-.75,1,1,0,0,1,.12-1.54,1,1,0,0,1,1.32,0A7.17,7.17,0,0,1,120,31.59,7.51,7.51,0,0,1,118.54,41Z" transform="translate(-2 -1.32)"/></svg>