<?xml version="1.0" encoding="utf-8"?>
<!-- Generator: Adobe Illustrator 24.3.0, SVG Export Plug-In . SVG Version: 6.00 Build 0)  -->
<svg version="1.1" id="Capa_1" xmlns="http://www.w3.org/2000/svg" xmlns:xlink="http://www.w3.org/1999/xlink" x="0px" y="0px"
	 viewBox="0 0 16 16" style="enable-background:new 0 0 16 16;" xml:space="preserve">
<style type="text/css">
	.st0{fill:#F2F2F2;}
</style>
<path class="st0" d="M0,16l1.1-4.1c-0.7-1.2-1.1-2.6-1.1-4C0.1,3.6,3.6,0,8,0c2.1,0,4.1,0.8,5.6,2.3C15.2,3.8,16,5.8,16,7.9
	c0,4.4-3.6,7.9-8,7.9c-1.3,0-2.6-0.3-3.8-1C4.2,14.9,0,16,0,16z M4.4,13.5c1.1,0.7,2.2,1.1,3.6,1.1c3.6,0,6.6-3,6.6-6.6
	c0-3.6-3-6.6-6.6-6.6c-3.7,0-6.6,3-6.6,6.6c0,1.5,0.4,2.6,1.2,3.8l-0.7,2.4C1.9,14.1,4.4,13.5,4.4,13.5z M12,9.8
	c0-0.1-0.2-0.1-0.4-0.2c-0.2-0.1-1.2-0.6-1.4-0.6C10.1,8.9,10,8.8,9.9,9C9.7,9.2,9.3,9.7,9.2,9.8S9,10,8.8,9.9
	C8.6,9.8,8,9.6,7.2,8.9c-0.6-0.5-1-1.2-1.1-1.4C6,7.3,6.1,7.2,6.2,7.1C6.3,7,6.4,6.9,6.5,6.8c0.1-0.1,0.1-0.2,0.2-0.3
	c0.1-0.1,0-0.2,0-0.3C6.6,6,6.2,5,6,4.6C5.9,4.2,5.7,4.3,5.6,4.3l-0.4,0c-0.1,0-0.3,0-0.5,0.2C4.5,4.7,4,5.2,4,6.2s0.7,1.9,0.8,2
	c0.1,0.1,1.4,2.1,3.4,3c0.5,0.2,0.8,0.3,1.1,0.4c0.5,0.2,0.9,0.1,1.3,0.1c0.4-0.1,1.2-0.5,1.3-0.9C12.1,10.3,12.1,9.9,12,9.8z"/>
</svg>
